<svg xmlns="http://www.w3.org/2000/svg" xmlns:xlink="http://www.w3.org/1999/xlink" width="500" zoomAndPan="magnify" viewBox="0 0 375 374.999991" height="500" preserveAspectRatio="xMidYMid meet" version="1.0"><defs><g/><clipPath id="e2d99a705c"><path d="M 321 134 L 354.402344 134 L 354.402344 224.859375 L 321 224.859375 Z M 321 134 " clip-rule="nonzero"/></clipPath><clipPath id="dbb529a70a"><path d="M 20.59375 133.046875 L 54 133.046875 L 54 224 L 20.59375 224 Z M 20.59375 133.046875 " clip-rule="nonzero"/></clipPath></defs><g clip-path="url(#e2d99a705c)"><path fill="#ffffff" d="M 321.882812 136.722656 C 326.09375 137.226562 330.953125 135.574219 334.816406 137.902344 C 338.570312 140.164062 338.191406 145.507812 338.019531 149.28125 C 337.628906 157.800781 335.578125 168.003906 341.453125 175.257812 C 342.84375 176.976562 344.609375 178.375 346.585938 179.246094 C 345.3125 179.921875 344.140625 180.804688 343.117188 181.816406 C 340.117188 184.792969 338.476562 188.8125 337.828125 192.941406 C 337.101562 197.601562 337.5625 202.296875 337.910156 206.96875 C 338.085938 209.371094 338.230469 211.789062 338.121094 214.199219 C 338.042969 215.941406 337.839844 218.03125 336.621094 219.390625 C 335.207031 220.972656 332.800781 221.371094 330.789062 221.417969 C 328.082031 221.480469 325.40625 221.054688 322.703125 221.378906 C 321.636719 221.503906 320.730469 224.140625 322.214844 223.960938 C 326.457031 223.457031 330.820312 224.867188 334.875 223.007812 C 338.773438 221.21875 340.019531 217.015625 340.199219 213.046875 C 340.414062 208.207031 339.644531 203.394531 339.519531 198.5625 C 339.410156 194.300781 339.789062 189.757812 342.007812 186.011719 C 344.148438 182.398438 348.277344 179.949219 352.523438 180.542969 C 353.441406 180.671875 354.40625 178.875 353.957031 178.175781 C 353.933594 177.773438 353.710938 177.488281 353.1875 177.558594 C 349.351562 178.09375 345.601562 176.003906 343.238281 173.085938 C 340.503906 169.710938 339.597656 165.265625 339.453125 161.019531 C 339.285156 156.273438 340.023438 151.5625 340.140625 146.828125 C 340.234375 142.992188 340.171875 138.214844 336.734375 135.726562 C 332.71875 132.816406 327.402344 134.636719 322.878906 134.097656 C 321.769531 133.960938 320.609375 136.570312 321.882812 136.722656 Z M 321.882812 136.722656 " fill-opacity="1" fill-rule="nonzero"/></g><g fill="#ffffff" fill-opacity="1"><g transform="translate(63.077848, 190.3251)"><g><path d="M 3.46875 0 L 3.46875 -18.203125 L 5.9375 -18.203125 L 6.171875 -15.671875 C 6.910156 -16.609375 7.832031 -17.328125 8.9375 -17.828125 C 10.050781 -18.328125 11.132812 -18.578125 12.1875 -18.578125 C 13.96875 -18.578125 15.265625 -18.101562 16.078125 -17.15625 C 16.890625 -16.21875 17.296875 -14.90625 17.296875 -13.21875 L 17.296875 0 L 14.390625 0 L 14.390625 -11.078125 C 14.390625 -12.316406 14.320312 -13.316406 14.1875 -14.078125 C 14.050781 -14.847656 13.765625 -15.410156 13.328125 -15.765625 C 12.890625 -16.117188 12.207031 -16.296875 11.28125 -16.296875 C 10.570312 -16.296875 9.898438 -16.140625 9.265625 -15.828125 C 8.640625 -15.515625 8.082031 -15.125 7.59375 -14.65625 C 7.101562 -14.195312 6.695312 -13.726562 6.375 -13.25 L 6.375 0 Z M 3.46875 0 "/></g></g></g><g fill="#ffffff" fill-opacity="1"><g transform="translate(83.813042, 190.3251)"><g><path d="M 12.6875 -18.203125 L 12.6875 -2.296875 L 17.8125 -2.296875 L 17.8125 0 L 4.171875 0 L 4.171875 -2.296875 L 9.78125 -2.296875 L 9.78125 -15.90625 L 4.34375 -15.90625 L 4.34375 -18.203125 Z M 10.375 -26.71875 C 11.019531 -26.71875 11.535156 -26.519531 11.921875 -26.125 C 12.304688 -25.738281 12.5 -25.257812 12.5 -24.6875 C 12.5 -24.101562 12.304688 -23.613281 11.921875 -23.21875 C 11.535156 -22.820312 11.019531 -22.625 10.375 -22.625 C 9.757812 -22.625 9.253906 -22.820312 8.859375 -23.21875 C 8.472656 -23.613281 8.28125 -24.101562 8.28125 -24.6875 C 8.28125 -25.257812 8.472656 -25.738281 8.859375 -26.125 C 9.253906 -26.519531 9.757812 -26.71875 10.375 -26.71875 Z M 10.375 -26.71875 "/></g></g></g><g fill="#ffffff" fill-opacity="1"><g transform="translate(104.548236, 190.3251)"><g><path d="M 11.703125 -2.109375 C 12.609375 -2.109375 13.457031 -2.253906 14.25 -2.546875 C 15.039062 -2.847656 15.769531 -3.234375 16.4375 -3.703125 L 17.859375 -1.796875 C 17.054688 -1.117188 16.097656 -0.582031 14.984375 -0.1875 C 13.867188 0.195312 12.773438 0.390625 11.703125 0.390625 C 9.890625 0.390625 8.347656 0.00390625 7.078125 -0.765625 C 5.804688 -1.546875 4.832031 -2.640625 4.15625 -4.046875 C 3.488281 -5.460938 3.15625 -7.117188 3.15625 -9.015625 C 3.15625 -10.835938 3.492188 -12.472656 4.171875 -13.921875 C 4.847656 -15.367188 5.820312 -16.503906 7.09375 -17.328125 C 8.363281 -18.160156 9.910156 -18.578125 11.734375 -18.578125 C 12.898438 -18.578125 13.988281 -18.398438 15 -18.046875 C 16.019531 -17.691406 16.957031 -17.164062 17.8125 -16.46875 L 16.40625 -14.53125 C 15.625 -15.070312 14.84375 -15.476562 14.0625 -15.75 C 13.289062 -16.019531 12.503906 -16.15625 11.703125 -16.15625 C 10.128906 -16.15625 8.835938 -15.566406 7.828125 -14.390625 C 6.816406 -13.210938 6.3125 -11.421875 6.3125 -9.015625 C 6.3125 -7.398438 6.539062 -6.082031 7 -5.0625 C 7.46875 -4.050781 8.109375 -3.304688 8.921875 -2.828125 C 9.734375 -2.347656 10.660156 -2.109375 11.703125 -2.109375 Z M 11.703125 -2.109375 "/></g></g></g><g fill="#ffffff" fill-opacity="1"><g transform="translate(125.28343, 190.3251)"><g><path d="M 18.71875 -18.203125 L 10.53125 -10 L 19.671875 0 L 15.84375 0 L 6.890625 -9.9375 L 14.953125 -18.203125 Z M 6.5625 -25.890625 L 6.5625 0 L 3.65625 0 L 3.65625 -25.53125 Z M 6.5625 -25.890625 "/></g></g></g><g fill="#ffffff" fill-opacity="1"><g transform="translate(146.018624, 190.3251)"><g><path d="M 7.546875 -2.421875 C 7.546875 -3.171875 7.8125 -3.820312 8.34375 -4.375 C 8.882812 -4.925781 9.546875 -5.203125 10.328125 -5.203125 C 11.140625 -5.203125 11.8125 -4.925781 12.34375 -4.375 C 12.882812 -3.820312 13.15625 -3.171875 13.15625 -2.421875 C 13.15625 -1.640625 12.882812 -0.972656 12.34375 -0.421875 C 11.8125 0.117188 11.140625 0.390625 10.328125 0.390625 C 9.546875 0.390625 8.882812 0.117188 8.34375 -0.421875 C 7.8125 -0.972656 7.546875 -1.640625 7.546875 -2.421875 Z M 7.546875 -14.875 C 7.546875 -15.644531 7.8125 -16.300781 8.34375 -16.84375 C 8.882812 -17.382812 9.546875 -17.65625 10.328125 -17.65625 C 11.140625 -17.65625 11.8125 -17.382812 12.34375 -16.84375 C 12.882812 -16.300781 13.15625 -15.644531 13.15625 -14.875 C 13.15625 -14.113281 12.882812 -13.453125 12.34375 -12.890625 C 11.8125 -12.335938 11.140625 -12.0625 10.328125 -12.0625 C 9.546875 -12.0625 8.882812 -12.335938 8.34375 -12.890625 C 7.8125 -13.453125 7.546875 -14.113281 7.546875 -14.875 Z M 7.546875 -14.875 "/></g></g></g><g fill="#ffffff" fill-opacity="1"><g transform="translate(166.753817, 190.3251)"><g><path d="M 15.484375 -6.6875 C 15.484375 -7.882812 15.25 -8.804688 14.78125 -9.453125 C 14.3125 -10.109375 13.691406 -10.5625 12.921875 -10.8125 C 12.148438 -11.070312 11.304688 -11.203125 10.390625 -11.203125 L 6.328125 -11.203125 L 6.328125 -2.46875 L 10.25 -2.46875 C 10.832031 -2.46875 11.429688 -2.523438 12.046875 -2.640625 C 12.660156 -2.753906 13.226562 -2.960938 13.75 -3.265625 C 14.269531 -3.566406 14.6875 -3.988281 15 -4.53125 C 15.320312 -5.082031 15.484375 -5.800781 15.484375 -6.6875 Z M 14.53125 -17.640625 C 14.53125 -18.992188 14.113281 -19.953125 13.28125 -20.515625 C 12.445312 -21.085938 11.3125 -21.375 9.875 -21.375 L 6.328125 -21.375 L 6.328125 -13.671875 L 10.15625 -13.671875 C 11.5625 -13.671875 12.640625 -13.984375 13.390625 -14.609375 C 14.148438 -15.234375 14.53125 -16.242188 14.53125 -17.640625 Z M 18.640625 -6.796875 C 18.640625 -5.503906 18.382812 -4.421875 17.875 -3.546875 C 17.363281 -2.671875 16.675781 -1.972656 15.8125 -1.453125 C 14.957031 -0.929688 14.003906 -0.554688 12.953125 -0.328125 C 11.898438 -0.109375 10.828125 0 9.734375 0 L 3.328125 0 L 3.328125 -23.796875 L 9.1875 -23.796875 C 10.238281 -23.796875 11.257812 -23.695312 12.25 -23.5 C 13.25 -23.3125 14.148438 -22.988281 14.953125 -22.53125 C 15.753906 -22.082031 16.394531 -21.472656 16.875 -20.703125 C 17.363281 -19.929688 17.609375 -18.960938 17.609375 -17.796875 C 17.609375 -16.773438 17.394531 -15.910156 16.96875 -15.203125 C 16.550781 -14.492188 16.003906 -13.925781 15.328125 -13.5 C 14.660156 -13.070312 13.945312 -12.769531 13.1875 -12.59375 C 14.070312 -12.457031 14.929688 -12.191406 15.765625 -11.796875 C 16.597656 -11.398438 17.285156 -10.800781 17.828125 -10 C 18.367188 -9.195312 18.640625 -8.128906 18.640625 -6.796875 Z M 18.640625 -6.796875 "/></g></g></g><g fill="#ffffff" fill-opacity="1"><g transform="translate(187.489011, 190.3251)"><g><path d="M 18.234375 -23.796875 L 18.234375 -7.703125 C 18.234375 -6.109375 17.90625 -4.695312 17.25 -3.46875 C 16.601562 -2.25 15.6875 -1.300781 14.5 -0.625 C 13.320312 0.0507812 11.929688 0.390625 10.328125 0.390625 C 8.691406 0.390625 7.289062 0.0507812 6.125 -0.625 C 4.957031 -1.3125 4.0625 -2.265625 3.4375 -3.484375 C 2.8125 -4.710938 2.5 -6.117188 2.5 -7.703125 L 2.5 -23.796875 L 5.484375 -23.796875 L 5.484375 -7.609375 C 5.484375 -5.796875 5.90625 -4.4375 6.75 -3.53125 C 7.59375 -2.632812 8.785156 -2.1875 10.328125 -2.1875 C 11.890625 -2.1875 13.09375 -2.632812 13.9375 -3.53125 C 14.78125 -4.4375 15.203125 -5.796875 15.203125 -7.609375 L 15.203125 -23.796875 Z M 18.234375 -23.796875 "/></g></g></g><g fill="#ffffff" fill-opacity="1"><g transform="translate(208.224205, 190.3251)"><g><path d="M 18.546875 -6.578125 C 18.546875 -5.222656 18.203125 -4.015625 17.515625 -2.953125 C 16.835938 -1.898438 15.851562 -1.078125 14.5625 -0.484375 C 13.269531 0.0976562 11.695312 0.390625 9.84375 0.390625 C 8.101562 0.390625 6.523438 0.128906 5.109375 -0.390625 C 3.703125 -0.921875 2.5 -1.671875 1.5 -2.640625 L 3.28125 -4.65625 C 4.113281 -3.875 5.0625 -3.253906 6.125 -2.796875 C 7.195312 -2.347656 8.457031 -2.125 9.90625 -2.125 C 10.875 -2.125 11.773438 -2.28125 12.609375 -2.59375 C 13.453125 -2.914062 14.132812 -3.398438 14.65625 -4.046875 C 15.175781 -4.703125 15.4375 -5.53125 15.4375 -6.53125 C 15.4375 -7.300781 15.285156 -7.957031 14.984375 -8.5 C 14.679688 -9.039062 14.148438 -9.519531 13.390625 -9.9375 C 12.628906 -10.363281 11.570312 -10.78125 10.21875 -11.1875 C 8.644531 -11.644531 7.285156 -12.164062 6.140625 -12.75 C 4.992188 -13.332031 4.109375 -14.046875 3.484375 -14.890625 C 2.859375 -15.742188 2.546875 -16.800781 2.546875 -18.0625 C 2.546875 -19.25 2.875 -20.300781 3.53125 -21.21875 C 4.1875 -22.144531 5.09375 -22.867188 6.25 -23.390625 C 7.40625 -23.910156 8.738281 -24.171875 10.25 -24.171875 C 11.894531 -24.171875 13.320312 -23.9375 14.53125 -23.46875 C 15.75 -23.007812 16.859375 -22.34375 17.859375 -21.46875 L 16.09375 -19.515625 C 15.238281 -20.273438 14.320312 -20.820312 13.34375 -21.15625 C 12.363281 -21.5 11.363281 -21.671875 10.34375 -21.671875 C 9.488281 -21.671875 8.695312 -21.539062 7.96875 -21.28125 C 7.25 -21.019531 6.671875 -20.632812 6.234375 -20.125 C 5.804688 -19.613281 5.59375 -18.957031 5.59375 -18.15625 C 5.59375 -17.476562 5.773438 -16.890625 6.140625 -16.390625 C 6.515625 -15.898438 7.140625 -15.453125 8.015625 -15.046875 C 8.890625 -14.640625 10.082031 -14.207031 11.59375 -13.75 C 12.820312 -13.394531 13.960938 -12.945312 15.015625 -12.40625 C 16.078125 -11.875 16.929688 -11.148438 17.578125 -10.234375 C 18.222656 -9.316406 18.546875 -8.097656 18.546875 -6.578125 Z M 18.546875 -6.578125 "/></g></g></g><g fill="#ffffff" fill-opacity="1"><g transform="translate(228.959399, 190.3251)"><g><path d="M 12.375 -24.171875 C 13.925781 -24.171875 15.226562 -23.972656 16.28125 -23.578125 C 17.332031 -23.191406 18.328125 -22.617188 19.265625 -21.859375 L 17.59375 -19.90625 C 16.84375 -20.539062 16.050781 -20.992188 15.21875 -21.265625 C 14.382812 -21.535156 13.507812 -21.671875 12.59375 -21.671875 C 11.289062 -21.671875 10.085938 -21.363281 8.984375 -20.75 C 7.878906 -20.132812 6.988281 -19.113281 6.3125 -17.6875 C 5.644531 -16.257812 5.3125 -14.332031 5.3125 -11.90625 C 5.3125 -9.539062 5.628906 -7.644531 6.265625 -6.21875 C 6.898438 -4.789062 7.765625 -3.757812 8.859375 -3.125 C 9.953125 -2.488281 11.175781 -2.171875 12.53125 -2.171875 C 13.863281 -2.171875 14.957031 -2.375 15.8125 -2.78125 C 16.675781 -3.1875 17.425781 -3.648438 18.0625 -4.171875 L 19.609375 -2.1875 C 18.890625 -1.488281 17.945312 -0.882812 16.78125 -0.375 C 15.613281 0.132812 14.1875 0.390625 12.5 0.390625 C 10.570312 0.390625 8.828125 -0.078125 7.265625 -1.015625 C 5.703125 -1.960938 4.460938 -3.347656 3.546875 -5.171875 C 2.640625 -7.003906 2.1875 -9.25 2.1875 -11.90625 C 2.1875 -14.582031 2.648438 -16.828125 3.578125 -18.640625 C 4.515625 -20.460938 5.753906 -21.835938 7.296875 -22.765625 C 8.847656 -23.703125 10.539062 -24.171875 12.375 -24.171875 Z M 12.375 -24.171875 "/></g></g></g><g fill="#ffffff" fill-opacity="1"><g transform="translate(249.694593, 190.3251)"><g><path d="M 7.34375 -21.34375 L 7.34375 -13.328125 L 16.15625 -13.328125 L 16.15625 -10.859375 L 7.34375 -10.859375 L 7.34375 -2.40625 L 18.15625 -2.40625 L 18.15625 0 L 4.34375 0 L 4.34375 -23.796875 L 17.859375 -23.796875 L 17.5 -21.34375 Z M 7.34375 -21.34375 "/></g></g></g><g fill="#ffffff" fill-opacity="1"><g transform="translate(270.429787, 190.3251)"><g><path d="M 18.328125 -23.796875 L 19.6875 0 L 16.796875 0 L 16.046875 -12.421875 C 16.015625 -13.265625 15.984375 -14.117188 15.953125 -14.984375 C 15.921875 -15.847656 15.894531 -16.675781 15.875 -17.46875 C 15.863281 -18.257812 15.859375 -18.96875 15.859375 -19.59375 C 15.859375 -20.21875 15.859375 -20.703125 15.859375 -21.046875 L 11.859375 -4.265625 L 8.84375 -4.265625 L 4.546875 -21.046875 C 4.554688 -20.710938 4.566406 -20.21875 4.578125 -19.5625 C 4.585938 -18.914062 4.59375 -18.179688 4.59375 -17.359375 C 4.601562 -16.546875 4.597656 -15.707031 4.578125 -14.84375 C 4.566406 -13.988281 4.546875 -13.191406 4.515625 -12.453125 L 3.875 0 L 1.046875 0 L 2.40625 -23.796875 L 6.578125 -23.796875 L 10.4375 -7.5 L 14.125 -23.796875 Z M 18.328125 -23.796875 "/></g></g></g><g fill="#ffffff" fill-opacity="1"><g transform="translate(291.164992, 190.3251)"><g><path d="M 17.171875 -23.796875 L 17.171875 -21.390625 L 11.890625 -21.390625 L 11.890625 -2.40625 L 17.171875 -2.40625 L 17.171875 0 L 3.5625 0 L 3.5625 -2.40625 L 8.84375 -2.40625 L 8.84375 -21.390625 L 3.5625 -21.390625 L 3.5625 -23.796875 Z M 17.171875 -23.796875 "/></g></g></g><g clip-path="url(#dbb529a70a)"><path fill="#ffffff" d="M 53.113281 221.1875 C 48.90625 220.683594 44.046875 222.335938 40.183594 220.007812 C 36.429688 217.746094 36.808594 212.398438 36.980469 208.628906 C 37.371094 200.109375 39.421875 189.90625 33.546875 182.652344 C 32.15625 180.933594 30.390625 179.535156 28.414062 178.660156 C 29.6875 177.988281 30.859375 177.105469 31.882812 176.09375 C 34.882812 173.113281 36.523438 169.097656 37.171875 164.96875 C 37.898438 160.308594 37.4375 155.613281 37.089844 150.941406 C 36.914062 148.535156 36.769531 146.121094 36.878906 143.710938 C 36.957031 141.964844 37.160156 139.878906 38.378906 138.519531 C 39.792969 136.9375 42.199219 136.539062 44.210938 136.492188 C 46.917969 136.429688 49.59375 136.855469 52.296875 136.53125 C 53.363281 136.40625 54.269531 133.769531 52.785156 133.945312 C 48.542969 134.453125 44.179688 133.042969 40.125 134.902344 C 36.226562 136.691406 34.980469 140.894531 34.800781 144.863281 C 34.585938 149.703125 35.355469 154.515625 35.480469 159.34375 C 35.589844 163.609375 35.210938 168.152344 32.992188 171.898438 C 30.851562 175.511719 26.722656 177.960938 22.476562 177.367188 C 21.558594 177.238281 20.59375 179.03125 21.042969 179.730469 C 21.066406 180.136719 21.289062 180.421875 21.8125 180.347656 C 25.648438 179.816406 29.398438 181.90625 31.761719 184.820312 C 34.496094 188.199219 35.402344 192.644531 35.546875 196.890625 C 35.714844 201.632812 34.976562 206.347656 34.859375 211.082031 C 34.765625 214.917969 34.828125 219.695312 38.265625 222.183594 C 42.28125 225.089844 47.597656 223.273438 52.121094 223.8125 C 53.230469 223.949219 54.390625 221.339844 53.113281 221.1875 Z M 53.113281 221.1875 " fill-opacity="1" fill-rule="nonzero"/></g></svg>