<svg width="1500" height="1400" viewBox="0 0 1500 1400" fill="none" xmlns="http://www.w3.org/2000/svg">
<path d="M189.5 264C189.5 253.783 197.783 245.5 208 245.5H816.419C826.636 245.5 834.919 253.783 834.919 264V662.882H189.5V264Z" fill="white" stroke="#A0AEC0" stroke-width="3"/>
<path d="M188 264C188 252.954 196.954 244 208 244H816.419C827.464 244 836.419 252.954 836.419 264V276.388H188V264Z" fill="#A0AEC0"/>
<circle cx="212.124" cy="260.194" r="8.92319" fill="#2D3748"/>
<circle cx="235.259" cy="260.194" r="8.92319" fill="#CBD5E0"/>
<circle cx="258.396" cy="260.194" r="8.92319" fill="#718096"/>
<rect x="364.527" y="318" width="165.637" height="129.527" transform="rotate(90 364.527 318)" fill="#EDF2F7"/>
<path d="M259.34 405.339H338.34" stroke="#CBD5E0" stroke-width="7"/>
<path d="M259.34 421.439H299.027" stroke="#CBD5E0" stroke-width="7"/>
<path d="M307.266 421.439H319.247" stroke="#CBD5E0" stroke-width="7"/>
<path d="M326.633 421.805H338.614" stroke="#CBD5E0" stroke-width="7"/>
<path d="M259.34 438.27H338.34" stroke="#CBD5E0" stroke-width="7"/>
<path d="M260.055 454.736H339.055" stroke="#CBD5E0" stroke-width="7"/>
<path d="M282.454 382.036L255.051 366.215L282.454 350.394" stroke="#D62F2F" stroke-width="8" stroke-linecap="round"/>
<path d="M317.92 382.277L344.863 367.009L317.92 350.394" stroke="#D62F2F" stroke-width="8" stroke-linecap="round"/>
<path d="M306.694 349.495L292.773 382.276" stroke="#D62F2F" stroke-width="8" stroke-linecap="round"/>
<path d="M628.652 440L784.643 440" stroke="#EDF2F7" stroke-width="10"/>
<path d="M501.742 461.812L716.56 461.813" stroke="#EDF2F7" stroke-width="10"/>
<path d="M730.609 461.677H751.471" stroke="#EDF2F7" stroke-width="10"/>
<path d="M764.336 462.17H785.198" stroke="#EDF2F7" stroke-width="10"/>
<path d="M472 484.286L784.642 484.286" stroke="#EDF2F7" stroke-width="10"/>
<path d="M473.32 527.91L785.963 527.91" stroke="#EDF2F7" stroke-width="10"/>
<path d="M504.059 506.511L785.965 506.511" stroke="#EDF2F7" stroke-width="10"/>
<path d="M646.852 342H784.41" stroke="#E2E8F0" stroke-width="10"/>
<path d="M616.449 363.812L716.257 363.812" stroke="#E2E8F0" stroke-width="10"/>
<path d="M730.297 363.677H751.159" stroke="#E2E8F0" stroke-width="10"/>
<path d="M764.027 364.17H784.889" stroke="#E2E8F0" stroke-width="10"/>
<path d="M591 386.286L784.336 386.286" stroke="#E2E8F0" stroke-width="10"/>
<path d="M648.098 408.511H785.656" stroke="#E2E8F0" stroke-width="10"/>
<rect x="1028.48" y="178.243" width="328.849" height="443.123" rx="5" transform="rotate(0.191577 1028.48 178.243)" fill="#718096"/>
<rect x="1037.89" y="205.692" width="308.658" height="400.612" rx="5" transform="rotate(0.191577 1037.89 205.692)" fill="#E2E8F0"/>
<rect x="1053.44" y="222.66" width="278.591" height="369.461" rx="5" transform="rotate(0.191577 1053.44 222.66)" fill="#F7FAFC"/>
<rect width="11.9426" height="94.0589" rx="5" transform="matrix(-0.00245242 0.999997 -0.999999 -0.00131174 1296.48 298.076)" fill="#CBD5E0"/>
<rect width="11.9426" height="94.0589" rx="5" transform="matrix(-0.00245242 0.999997 -0.999999 -0.00131174 1296.82 273.124)" fill="#CBD5E0"/>
<rect width="11.9426" height="206.414" rx="5" transform="matrix(-0.00539749 0.999985 -1 -0.000595988 1296.48 390.872)" fill="#CBD5E0"/>
<rect width="11.9426" height="94.0589" rx="5" transform="matrix(-0.00245242 0.999997 -0.999999 -0.00131174 1296.48 323.151)" fill="#CBD5E0"/>
<rect width="11.9426" height="206.414" rx="5" transform="matrix(-0.00539749 0.999985 -1 -0.000595988 1296.48 416.913)" fill="#CBD5E0"/>
<rect width="11.9426" height="94.0589" rx="5" transform="matrix(-0.00245242 0.999997 -0.999999 -0.00131174 1296.82 348.226)" fill="#CBD5E0"/>
<rect width="11.9426" height="206.414" rx="5" transform="matrix(-0.00539749 0.999985 -1 -0.000595988 1296.48 441.986)" fill="#CBD5E0"/>
<ellipse rx="18.7696" ry="19.214" transform="matrix(-1 9.92685e-08 9.92685e-08 1 1132.61 301.214)" fill="#D62F2F"/>
<path d="M1160.48 326.138C1160.48 323.377 1158.25 321.138 1155.48 321.138L1108 321.138C1105.24 321.138 1103 323.377 1103 326.138L1103 354.747C1103 357.509 1105.24 359.747 1108 359.747L1155.48 359.747C1158.25 359.747 1160.48 357.509 1160.48 354.747L1160.48 326.138Z" fill="#D62F2F"/>
<rect x="1117.77" y="161.905" width="147.293" height="48.5668" rx="15" fill="#4A5568"/>
<path d="M1145.8 153.207C1145.08 147.25 1149.73 142 1155.73 142H1230.77C1236.88 142 1241.56 147.428 1240.66 153.47L1239.26 162.929C1238.53 167.83 1234.32 171.459 1229.36 171.459H1156.88C1151.82 171.459 1147.56 167.685 1146.95 162.666L1145.8 153.207Z" fill="#2D3748"/>
<path d="M794 958.5L45 1297.25L1446.5 1297.25L794 958.5Z" fill="#EDF2F7"/>
<path d="M663.5 728L565.5 767.5H1356.5L1303.5 728H663.5Z" fill="#E2E8F0"/>
<path d="M1097.36 899.47L1112.52 1146.05L1101.56 1147.25L1070.79 901.302L1097.36 899.47Z" fill="#2D3748"/>
<path d="M930.478 907.011L907.83 1152.51L896.931 1150.57L904.204 901.247L930.478 907.011Z" fill="#2D3748"/>
<path d="M1142.56 788.229C1142.56 896.497 1089 948.617 997.36 948.617C917.171 948.617 852.164 896.497 852.164 788.229C1067.5 788.23 1142.56 788.229 1142.56 788.229Z" fill="#4A5568"/>
<path d="M853 727C853 650.721 906.484 614 998 614C1078.08 614 1143 650.721 1143 727C927.955 727 853 727 853 727Z" fill="#4A5568"/>
<ellipse cx="996.947" cy="879.236" rx="101.06" ry="44.7017" fill="#718096"/>
<path d="M904.704 1046.88L865.256 1026.45C865.256 1026.45 853.37 1072.37 831.195 1085.8C815.565 1095.27 792.371 1074.37 780.937 1089.06C775.838 1095.61 765.049 1104.22 771.765 1109.88C797.861 1131.86 813.236 1125.63 836.755 1128.89C849.332 1130.63 865.472 1140.29 869.015 1131.69C872.558 1123.1 876.133 1113.46 878.236 1105.79C883.274 1087.43 897.323 1060.84 904.59 1047.09L904.704 1046.88Z" fill="#171923"/>
<path d="M1025.44 1080.14L981.273 1072.47C981.273 1072.47 998.42 1123.63 988.161 1144.9C980.93 1159.89 949.76 1146.25 949.012 1165.2C948.678 1173.64 944.903 1186.13 953.697 1189.67C987.872 1203.44 996.784 1191.86 1017.9 1187.27C1029.2 1184.82 1048.03 1189.3 1045.9 1179.28C1043.76 1169.25 1041.04 1158.15 1038.28 1149.57C1031.66 1129.01 1027.58 1096.97 1025.48 1080.4L1025.44 1080.14Z" fill="#171923"/>
<path d="M934.933 778H1081V840.173C1081 865.526 1062.03 886.866 1036.85 889.83L908.004 905L934.933 778Z" fill="#CBD5E0"/>
<path d="M930 598.775C930 588.788 937.377 580.298 947.289 579.081C988.453 574.024 1018.3 573.293 1063.87 579.011C1073.72 580.246 1081 588.706 1081 598.631V730.486C1081 740.016 1074.27 748.265 1064.89 749.921C1017.74 758.243 987.47 757.766 945.904 750.047C936.614 748.322 930 740.113 930 730.663V598.775Z" fill="#D62F2F"/>
<path d="M931.798 789.224C988.302 788.214 1021.1 787.994 1083.97 788.968C1083.99 799.831 1075.32 808.732 1064.46 808.967C1020.12 809.927 990.499 809.932 951.34 809.179C940.49 808.97 931.816 800.077 931.798 789.224Z" fill="#D62F2F"/>
<path d="M1039.56 622.91C1032.51 609.915 1037.35 593.709 1050.38 586.715C1064.03 579.384 1081.09 585.111 1087.55 599.193L1146.14 726.998C1148.9 733.011 1148.8 739.934 1145.87 745.853C1137.96 761.853 1115.19 762.238 1106.66 746.515L1039.56 622.91Z" fill="#D62F2F"/>
<path d="M1029.48 758.25C1019.57 758.189 1011.58 750.105 1011.64 740.195C1011.7 730.52 1019.42 722.634 1029.1 722.369L1127.4 719.672C1138.43 719.37 1147.53 728.214 1147.54 739.239C1147.55 750.12 1138.7 758.929 1127.82 758.862L1029.48 758.25Z" fill="#D62F2F"/>
<path d="M985.948 719.393C999.954 721.408 1009.66 734.393 1007.63 748.396C1005.65 762.056 993.196 771.704 979.473 770.216L846.552 755.8C830.904 754.103 819.759 739.83 821.907 724.239C824.025 708.869 838.259 698.149 853.616 700.358L985.948 719.393Z" fill="#D62F2F"/>
<rect width="56.7671" height="186.964" rx="28.3836" transform="matrix(0.784801 0.619748 -0.623215 0.78205 945.523 570)" fill="#D62F2F"/>
<path d="M990.004 541H1027V588.639C1012.55 596.885 1004.46 597.353 990.004 588.639V541Z" fill="#A0AEC0"/>
<ellipse rx="47.3686" ry="59.8316" transform="matrix(0.932795 0.360407 -0.363266 0.931685 1005.36 508.59)" fill="#CBD5E0"/>
<ellipse rx="11.4038" ry="14.4042" transform="matrix(0.932795 0.360407 -0.363266 0.931685 1054.87 515.53)" fill="#CBD5E0"/>
<path d="M1029 497.029C1018.81 487.969 1018.5 462 1018.5 462C1018.5 462 1017.75 464.091 1005 465.773C990.253 467.718 977.268 470.324 967.504 481.5C962.224 487.544 956.505 506.5 956.505 506.5C956.505 506.5 951.425 479.914 954.097 469.5C957.005 458.167 961.383 451.287 969.114 443.576C981.188 431.533 991.613 424.849 1008.7 425.003C1025.47 425.153 1047.38 440.405 1047.38 440.405C1047.38 440.405 1066.23 455.453 1073.32 467.131C1088 491.278 1087 572.5 1087 572.5C1087 572.5 1024.5 614.5 1026.5 603.5C1028.5 592.5 1029 554.5 1029 554.5C1029 554.5 1041.77 531.734 1047.38 528.739C1051.61 526.484 1053.37 528.764 1056.94 525.568C1060.9 522.018 1059.67 520.457 1059.67 515.149C1059.67 510.904 1062.51 507.451 1059.67 504.277C1056.48 500.707 1050.57 500.707 1047.38 504.277C1044.55 507.451 1043.5 510 1043.5 510C1043.5 510 1039.2 506.089 1029 497.029Z" fill="#171923"/>
<path d="M931.072 924.162C925.822 905.055 940.21 886.198 960.025 886.214L966.909 886.22C981.468 886.232 993.917 896.696 996.433 911.036L1028.76 1095.3L980.565 1104.3L931.072 924.162Z" fill="#A0AEC0"/>
<path d="M969.803 864.363C976.639 844.566 965.032 823.456 944.665 818.645C925.581 814.138 906.167 825.766 901.143 844.712L847.765 1046.02L902.241 1060.02L969.803 864.363Z" fill="#CBD5E0"/>
<rect x="566" y="765.387" width="788" height="24.7894" fill="#CBD5E0"/>
<path d="M634.254 788.775L586.142 1204.98L576.549 1204.98L610.656 788.775L634.254 788.775Z" fill="#718096"/>
<path d="M1264.04 790.719L1299.64 1207.16L1290.19 1207.78L1241 790.438L1264.04 790.719Z" fill="#718096"/>
<path d="M790 618H1026.81L1019.41 758.606H805.329L790 618Z" fill="#EDF2F7"/>
<rect x="811.145" y="758.605" width="204.038" height="6.34315" fill="#718096"/>
<path d="M885.143 674.191H872.391L879.936 683.315L888.225 678.117L885.143 674.191Z" fill="#D62F2F"/>
<path d="M889.926 680.134L881.637 685.544L886.1 690.849L892.689 683.529L889.926 680.134Z" fill="#D62F2F"/>
<path d="M896.409 688.195L894.496 685.755L887.801 693.075L893.858 700.289L898.428 697.319L896.409 688.195Z" fill="#D62F2F"/>
<path d="M926.058 665.385L917.131 678.223L916.281 671.645L908.948 665.385L900.659 667.826L898.534 670.372L901.509 674.085L902.572 672.069L904.166 672.175L905.229 673.661L902.466 678.223L891.839 665.385H865.059L870.053 671.433H886.738L898.64 686.286L901.403 698.698L895.664 702.411L900.553 708.247L903.103 701.563H907.142C907.142 701.563 908.311 705.488 908.736 707.08C908.842 707.504 908.948 707.716 908.948 707.716L910.649 701.563H914.687L917.344 708.247L922.232 702.411L916.493 698.592L919.257 686.179L931.159 671.327H947.737L952.732 665.279H926.058V665.385ZM907.992 669.417L905.866 668.144L908.311 667.719L907.992 669.417Z" fill="#D62F2F"/>
<path d="M910.65 712.067H907.143L905.124 703.58L903.211 711.643L908.95 718.433L914.582 711.643L912.669 703.58L910.65 712.067Z" fill="#D62F2F"/>
<path d="M929.562 678.117L937.852 683.315L945.397 674.191H932.644L929.562 678.117Z" fill="#D62F2F"/>
<path d="M925.102 683.529L931.69 690.849L936.154 685.544L927.865 680.134L925.102 683.529Z" fill="#D62F2F"/>
<path d="M921.382 688.195L919.363 697.319L923.933 700.289L929.99 693.075L923.295 685.755L921.382 688.195Z" fill="#D62F2F"/>
<path d="M908.097 663.796L908.947 658.915L905.546 661.462L902.039 658.173L900.87 662.735L896.832 662.523L899.808 666.236L908.097 663.796Z" fill="#D62F2F"/>
<path d="M781.184 721.901C771.822 719.469 749.275 716.065 733.978 721.901C742.194 726.763 763.138 733.571 781.184 721.901Z" fill="#2D3748"/>
<path d="M782 721.445C782 721.445 771.318 725.913 757.133 725.913C742.947 725.913 732.001 721.445 732.001 721.445L739.095 759.077C739.773 762.676 742.353 765.671 745.893 766.607C754.342 768.841 760.724 769.048 769.19 766.709C772.682 765.745 775.146 762.702 775.739 759.129L782 721.445Z" fill="#D62F2F"/>
<path d="M780.641 721.509C770.869 718.241 748.569 715.602 733.435 721.509" stroke="#D62F2F" stroke-width="3" stroke-linecap="round" stroke-linejoin="round"/>
<path d="M779.19 732.586C789.383 731.718 803.092 733.954 776.378 749.852" stroke="#D62F2F" stroke-width="6" stroke-linecap="round"/>
<path d="M1310.79 1185.86C1311.97 1181.49 1310.09 1176.82 1305.98 1174.92C1274.13 1160.17 1221.23 1157.44 1181.9 1175.01C1177.7 1176.88 1175.67 1181.57 1176.79 1186.03L1200.62 1280.32C1232.38 1293.56 1250.83 1294.62 1285.21 1280.32L1310.79 1185.86Z" fill="#CBD5E0"/>
<path d="M1181.86 1183.96C1181.86 1191.28 1209.69 1197.2 1244.02 1197.2C1278.34 1197.2 1306.17 1191.28 1306.17 1183.96C1306.17 1176.65 1278.34 1167.41 1244.02 1167.41C1209.69 1167.41 1181.86 1176.65 1181.86 1183.96Z" fill="#4A5568"/>
<path d="M1263.18 1183.48C1260.58 1119.35 1270.31 990.501 1329.99 988.094" stroke="#718096" stroke-width="3"/>
<path d="M1238.48 1183.19C1238.65 1138.31 1228.59 1048.49 1187.05 1048.26" stroke="#718096" stroke-width="3"/>
<path d="M1250.09 1184.3C1237.49 1097.1 1219.85 913.16 1250.09 875.014C1280.33 836.868 1292.47 829.05 1294.77 829.909" stroke="#718096" stroke-width="3"/>
<path d="M1200.98 1032.9C1220.97 1042.44 1221.95 1068.91 1224.7 1084.44C1215.85 1071.67 1185.1 1096.37 1160.13 1091.8C1150.11 1089.96 1135.2 1084.14 1135.2 1084.14L1141.06 1071.22L1129.59 1082.4C1120.01 1082.06 1105.74 1075.1 1091.36 1068.27C1078.59 1062.2 1067.29 1051.84 1060 1050.18C1070.85 1047.81 1111.59 1029.3 1111.59 1029.3L1131.92 1040.14L1123.44 1027.92C1133.52 1025.89 1146.73 1025.3 1160.94 1028.87C1169.79 1031.09 1177.81 1037.02 1182.61 1037.59L1176.58 1028.89C1179.56 1028.57 1192.26 1028.74 1200.98 1032.9Z" fill="#A0AEC0"/>
<path d="M1296.1 985.513C1276.45 998.839 1278.38 1027.1 1277.25 1044.02C1285 1029.05 1319.58 1050.35 1344.93 1041.5C1355.1 1037.95 1369.9 1029.39 1369.9 1029.39L1362.39 1016.61L1375.51 1026.64C1385.39 1024.75 1399.4 1015.08 1413.53 1005.53C1426.08 997.05 1436.64 984.241 1444 981.321C1432.5 980.537 1388.26 967.401 1388.26 967.401L1368.41 982.164L1375.83 967.831C1365.17 967.293 1351.42 968.779 1337.1 974.839C1328.19 978.61 1320.54 986.19 1315.64 987.556L1320.92 977.363C1317.8 977.497 1304.66 979.704 1296.1 985.513Z" fill="#4A5568"/>
<path d="M1185.47 916.111C1182.79 949.015 1216.26 969.963 1234.25 985.064C1239.77 962.644 1279.4 942.82 1292.23 907.188C1297.38 892.893 1301.06 869.314 1301.06 869.314L1279.97 867.275L1303.02 860.776C1309.78 848.168 1311.5 824.563 1313.46 800.927C1315.21 779.934 1310.31 757.634 1313.64 747C1302.43 759.238 1247.93 798.057 1247.93 798.057L1246.68 832.367L1237.25 812.333C1227.07 823.832 1216.38 840.449 1210.33 861.445C1206.56 874.511 1208.2 889.278 1205.33 895.887L1198.62 881.64C1195.97 885.247 1186.64 901.767 1185.47 916.111Z" fill="#A0AEC0"/>
<path d="M451.887 641L435.736 681.893C431.235 693.29 438.005 706.646 448.05 713.665C448.867 714.236 449.693 714.837 450.527 715.469C496.76 750.545 590 757 590 757L600.5 725.5L451.887 641Z" fill="black"/>
<path d="M655.734 900.834C660.298 884.038 649.658 866.896 632.581 863.532L444.769 826.542L331.752 891.252L640.208 957.968L655.734 900.834Z" fill="black"/>
<path d="M443.855 587.31L371.501 576.511L457.688 680.309L515.15 640.942L443.855 587.31Z" fill="#4A5568"/>
<path d="M420.222 890.927C473.087 880.853 471.573 876.149 502.374 837.669C503.803 835.884 504.676 833.633 504.388 831.366C502.445 816.094 487.815 808.709 473.602 762.442C461.757 723.884 471.247 669.106 483.66 622.991C488.833 603.774 475.212 584.259 455.325 583.533L344.023 579.472C310.05 578.233 281.835 605.437 281.835 639.432L281.835 683.544C281.835 684.331 281.928 685.115 282.112 685.88L329.576 883.443C330.656 887.938 334.686 891.107 339.309 891.107L418.326 891.107C418.951 891.107 419.608 891.044 420.222 890.927Z" fill="#2D3748"/>
<path d="M475.688 592.171C469.037 584.728 457.918 583.328 449.63 588.889L390.745 628.405L512.495 722.605L571.896 699.842L475.688 592.171Z" fill="#2D3748"/>
<path d="M490 705L522.68 734.411C531.789 742.609 546.668 740.928 556.753 733.966C557.573 733.4 558.425 732.835 559.308 732.275C608.318 701.197 657.155 620.433 657.155 620.433L630.088 600.651L490 705Z" fill="#2D3748"/>
<path d="M577.156 1089.42L540.166 1078.6L525.494 1143.81L553.056 1153.14L577.156 1089.42Z" fill="#CBD5E0"/>
<path d="M495.461 1063.84L457.191 1059.3L453.511 1126.03L482.238 1130.67L495.461 1063.84Z" fill="#CBD5E0"/>
<path d="M641.656 953.626L566.625 934.084L529.08 1095.18L588.947 1115.83L641.656 953.626Z" fill="black"/>
<path d="M540.18 892.101L467.932 880.964L447.864 1063.68L501.856 1075.39L540.18 892.101Z" fill="black"/>
<path d="M449.87 1089.52L492.147 1094.68C492.147 1094.68 480.862 1138.7 493.134 1161.91C501.784 1178.27 530.742 1174.05 533.487 1192.36C534.712 1200.52 539.723 1213.51 531.521 1214.41C499.646 1217.91 489.718 1204.32 468.627 1193.97C457.347 1188.44 439.449 1187.39 440.464 1178.43C441.479 1169.46 442.95 1159.62 444.735 1152.2C449.009 1134.44 449.574 1104.99 449.866 1089.76L449.87 1089.52Z" fill="black"/>
<path d="M526.437 1116.59C531.203 1128.98 555.231 1121.95 570.521 1121.35L565.751 1142.8L557.411 1176.76C557.411 1176.76 592.828 1168.38 599.117 1183.91C603.676 1195.16 613.017 1209.52 599.117 1211.91C585.216 1214.29 550.787 1216.08 539.539 1216.08C521.667 1216.08 500.82 1207.14 500.82 1207.14C500.82 1207.14 500.975 1195.46 504.986 1183.91C513.281 1160.02 526.437 1116.59 526.437 1116.59Z" fill="black"/>
<ellipse rx="17.8666" ry="20.0999" transform="matrix(-1 -8.74228e-08 -8.74228e-08 1 374.59 1166.87)" fill="#718096"/>
<path d="M514.758 928.478L238.04 928.478L238.04 961.696L514.758 961.696L514.758 928.478Z" fill="#4A5568"/>
<path d="M354.887 961.043L354.887 1141.19C354.887 1146.71 359.364 1151.19 364.887 1151.19L380.664 1151.19C386.187 1151.19 390.664 1146.71 390.664 1141.19L390.664 961.043L354.887 961.043Z" fill="#2D3748"/>
<path d="M384.681 818.581C401.562 845.781 523.141 861.466 512.519 928.475L239.231 928.475L232.448 712.937C224.064 647.265 335.866 671.651 343.985 712.937C348.004 733.378 367.799 791.381 384.681 818.581Z" fill="#D62F2F"/>
<path d="M271.86 1191.44C271.86 1177.53 282.004 1164.16 300.147 1154.16C318.291 1144.16 343.012 1138.32 369.085 1137.87C395.158 1137.41 420.54 1142.39 439.866 1151.73C459.192 1161.08 470.947 1174.06 472.646 1187.95L438.161 1189.15C437.046 1180.04 429.333 1171.52 416.653 1165.38C403.973 1159.25 387.319 1155.99 370.211 1156.29C353.103 1156.59 336.883 1160.42 324.978 1166.98C313.074 1173.54 306.418 1182.31 306.418 1191.44L271.86 1191.44Z" fill="#2D3748"/>
<circle r="17.8666" transform="matrix(-1 -8.74228e-08 -8.74228e-08 1 454.993 1191.44)" fill="#718096"/>
<circle r="17.8666" transform="matrix(-1 -8.74228e-08 -8.74228e-08 1 289.719 1195.9)" fill="#718096"/>
<ellipse rx="53.556" ry="71.3183" transform="matrix(-0.950069 0.312041 0.313849 0.949473 400.423 488.426)" fill="#CBD5E0"/>
<path d="M407.232 521.751C407.094 517.433 404.136 513.788 399.919 512.741L384.518 508.914C378.682 507.463 372.718 511.446 371.819 517.394L362.051 582.037C361.42 586.212 363.488 590.297 367.352 591.94C380.096 597.357 389.504 598.088 402.149 594.752C406.539 593.593 409.402 589.429 409.259 584.985L407.232 521.751Z" fill="#A0AEC0"/>
<path d="M439.499 457C444.372 457.285 448.334 468 451.999 457C455.663 446 479.499 428.5 459.499 427C439.499 425.5 445.049 416.934 434.499 413.5C416.303 407.577 403.906 408.272 385.499 413.5C369.516 418.039 359.596 422.135 348.499 434.5C337.042 447.266 323.511 473.567 330.999 489C355.5 539.5 348.499 554 365.997 557C383.496 560 388 557 388 557C388 557 389.991 544.01 393.5 536.5C397.632 527.654 408 519.5 408.5 516.5C409 513.5 393.619 506.837 395 498C396.151 490.634 401.277 482.652 408.5 484.5C414.437 486.019 416.5 498 416.5 498H426C424.113 493.804 426.606 456.247 439.499 457Z" fill="black"/>
<path d="M652 618C661.55 616.136 668.818 615.125 669.725 614.864C670.631 614.603 683.296 609.209 695.276 607.671C700.936 606.944 707.166 603.376 704.42 601.329C703.397 600.567 699.478 600.595 694.96 600.931C697.607 600.452 702.668 599.672 709.707 599.356C718.152 598.035 716.153 594.902 712.962 593.929C709.771 592.956 701.39 592.138 697.599 591.85L680.443 593.929L698.982 590.488L710.418 592.495C714.583 592.746 719.262 591.29 717.533 589.144C715.803 586.998 705.265 584.457 702.317 583.237L693.86 581.827L680.443 584.393L708.48 578.58C709.523 578.328 715.54 577.425 712.244 574.967C708.809 572.405 692.741 573.761 692.741 573.761L669.725 581.827L679.202 573.59C682.686 571.305 686.113 566.03 685.181 563.46C684.249 560.89 675.55 565.934 671.312 568.634L634 602.939L652 618Z" fill="#CBD5E0"/>
<path d="M590.914 754.673C602.414 754.673 614.333 755.917 615.276 755.971C616.218 756.024 629.954 755.123 641.768 757.633C647.351 758.82 654.409 757.514 652.495 754.673C651.782 753.616 648.074 752.346 643.7 751.169C646.355 751.592 651.39 752.53 658.138 754.561C666.544 756.106 665.694 752.489 663.004 750.516C660.314 748.542 652.676 744.997 649.194 743.472L632.315 739.76L650.949 742.644L661.078 748.32C664.925 749.935 669.823 750.109 668.9 747.512C667.978 744.915 658.873 739.031 656.495 736.904L648.98 732.776L635.47 730.76L663.851 734.548C664.919 734.655 670.896 735.793 668.598 732.383C666.204 728.829 650.592 724.794 650.592 724.794L626.203 724.793L637.871 720.155C641.915 719.151 646.895 715.306 646.865 712.572C646.835 709.838 636.957 711.722 632.064 712.867L598.414 728.229L590.914 754.673Z" fill="#A0AEC0"/>
<path d="M372.942 602.705C366.291 595.262 355.172 593.862 346.884 599.423L287.998 638.939L409.749 733.139L469.15 710.376L372.942 602.705Z" fill="#2D3748"/>
<path d="M681.773 722.064C672.569 719.674 650.399 716.327 635.358 722.064C643.437 726.846 664.03 733.54 681.773 722.064Z" fill="#2D3748"/>
<path d="M682.578 721.617C682.578 721.617 672.075 726.01 658.127 726.01C644.179 726.01 633.416 721.617 633.416 721.617L640.372 758.521C641.051 762.12 643.629 765.117 647.171 766.048C655.4 768.213 661.642 768.413 669.889 766.149C673.382 765.191 675.845 762.147 676.438 758.573L682.578 721.617Z" fill="#D62F2F"/>
<path d="M681.242 721.68C671.634 718.466 649.708 715.872 634.827 721.68" stroke="#D62F2F" stroke-width="3" stroke-linecap="round" stroke-linejoin="round"/>
<path d="M679.817 732.572C689.84 731.718 703.319 733.917 677.052 749.548" stroke="#D62F2F" stroke-width="6" stroke-linecap="round"/>
</svg>
