<svg xmlns="http://www.w3.org/2000/svg" xmlns:xlink="http://www.w3.org/1999/xlink" width="548" zoomAndPan="magnify" viewBox="0 0 410.88 92.999996" height="124" preserveAspectRatio="xMidYMid meet" version="1.0"><defs><g/><clipPath id="93defd3130"><path d="M 38.585938 1 L 72 1 L 72 92 L 38.585938 92 Z M 38.585938 1 " clip-rule="nonzero"/></clipPath></defs><path fill="#ffffff" d="M 339.785156 3.988281 C 343.996094 4.488281 348.851562 2.835938 352.714844 5.164062 C 356.46875 7.421875 356.085938 12.769531 355.914062 16.539062 C 355.523438 25.058594 353.476562 35.257812 359.347656 42.507812 C 360.738281 44.226562 362.503906 45.625 364.480469 46.496094 C 363.207031 47.171875 362.035156 48.050781 361.011719 49.066406 C 358.011719 52.042969 356.371094 56.058594 355.726562 60.1875 C 354.996094 64.847656 355.460938 69.539062 355.804688 74.210938 C 355.980469 76.613281 356.125 79.03125 356.019531 81.441406 C 355.941406 83.183594 355.734375 85.269531 354.519531 86.628906 C 353.105469 88.210938 350.699219 88.609375 348.6875 88.65625 C 345.980469 88.714844 343.304688 88.292969 340.601562 88.617188 C 339.539062 88.742188 338.632812 91.375 340.117188 91.199219 C 344.355469 90.695312 348.71875 92.101562 352.773438 90.242188 C 356.667969 88.457031 357.917969 84.253906 358.09375 80.289062 C 358.308594 75.449219 357.539062 70.636719 357.417969 65.808594 C 357.308594 61.546875 357.683594 57.003906 359.902344 53.257812 C 362.042969 49.648438 366.171875 47.199219 370.414062 47.792969 C 371.332031 47.921875 372.296875 46.125 371.847656 45.429688 C 371.824219 45.023438 371.601562 44.738281 371.078125 44.8125 C 367.246094 45.34375 363.496094 43.253906 361.132812 40.339844 C 358.402344 36.964844 357.496094 32.519531 357.347656 28.273438 C 357.183594 23.53125 357.917969 18.820312 358.035156 14.085938 C 358.128906 10.253906 358.066406 5.476562 354.628906 2.988281 C 350.613281 0.0820312 345.300781 1.898438 340.777344 1.359375 C 339.667969 1.222656 338.511719 3.832031 339.785156 3.988281 Z M 339.785156 3.988281 " fill-opacity="1" fill-rule="nonzero"/><g fill="#ffffff" fill-opacity="1"><g transform="translate(81.054172, 57.571872)"><g><path d="M 3.46875 0 L 3.46875 -18.1875 L 5.9375 -18.1875 L 6.171875 -15.671875 C 6.898438 -16.597656 7.820312 -17.3125 8.9375 -17.8125 C 10.050781 -18.3125 11.128906 -18.5625 12.171875 -18.5625 C 13.960938 -18.5625 15.265625 -18.085938 16.078125 -17.140625 C 16.890625 -16.203125 17.296875 -14.894531 17.296875 -13.21875 L 17.296875 0 L 14.390625 0 L 14.390625 -11.078125 C 14.390625 -12.316406 14.316406 -13.316406 14.171875 -14.078125 C 14.035156 -14.847656 13.75 -15.40625 13.3125 -15.75 C 12.875 -16.101562 12.195312 -16.28125 11.28125 -16.28125 C 10.5625 -16.28125 9.890625 -16.125 9.265625 -15.8125 C 8.640625 -15.507812 8.082031 -15.125 7.59375 -14.65625 C 7.101562 -14.1875 6.695312 -13.71875 6.375 -13.25 L 6.375 0 Z M 3.46875 0 "/></g></g></g><g fill="#ffffff" fill-opacity="1"><g transform="translate(101.783312, 57.571872)"><g><path d="M 12.671875 -18.1875 L 12.671875 -2.296875 L 17.8125 -2.296875 L 17.8125 0 L 4.15625 0 L 4.15625 -2.296875 L 9.78125 -2.296875 L 9.78125 -15.890625 L 4.328125 -15.890625 L 4.328125 -18.1875 Z M 10.359375 -26.703125 C 11.003906 -26.703125 11.519531 -26.503906 11.90625 -26.109375 C 12.289062 -25.722656 12.484375 -25.25 12.484375 -24.6875 C 12.484375 -24.09375 12.289062 -23.597656 11.90625 -23.203125 C 11.519531 -22.804688 11.003906 -22.609375 10.359375 -22.609375 C 9.753906 -22.609375 9.253906 -22.804688 8.859375 -23.203125 C 8.472656 -23.597656 8.28125 -24.09375 8.28125 -24.6875 C 8.28125 -25.25 8.472656 -25.722656 8.859375 -26.109375 C 9.253906 -26.503906 9.753906 -26.703125 10.359375 -26.703125 Z M 10.359375 -26.703125 "/></g></g></g><g fill="#ffffff" fill-opacity="1"><g transform="translate(122.512452, 57.571872)"><g><path d="M 11.6875 -2.109375 C 12.601562 -2.109375 13.453125 -2.253906 14.234375 -2.546875 C 15.023438 -2.847656 15.753906 -3.234375 16.421875 -3.703125 L 17.84375 -1.796875 C 17.050781 -1.117188 16.09375 -0.582031 14.96875 -0.1875 C 13.851562 0.195312 12.757812 0.390625 11.6875 0.390625 C 9.882812 0.390625 8.347656 0.00390625 7.078125 -0.765625 C 5.804688 -1.546875 4.832031 -2.640625 4.15625 -4.046875 C 3.488281 -5.460938 3.15625 -7.117188 3.15625 -9.015625 C 3.15625 -10.835938 3.492188 -12.46875 4.171875 -13.90625 C 4.847656 -15.351562 5.820312 -16.488281 7.09375 -17.3125 C 8.363281 -18.144531 9.910156 -18.5625 11.734375 -18.5625 C 12.890625 -18.5625 13.976562 -18.382812 15 -18.03125 C 16.019531 -17.6875 16.957031 -17.164062 17.8125 -16.46875 L 16.390625 -14.53125 C 15.617188 -15.070312 14.84375 -15.476562 14.0625 -15.75 C 13.289062 -16.019531 12.5 -16.15625 11.6875 -16.15625 C 10.125 -16.15625 8.835938 -15.566406 7.828125 -14.390625 C 6.816406 -13.210938 6.3125 -11.421875 6.3125 -9.015625 C 6.3125 -7.398438 6.539062 -6.082031 7 -5.0625 C 7.46875 -4.050781 8.109375 -3.304688 8.921875 -2.828125 C 9.734375 -2.347656 10.65625 -2.109375 11.6875 -2.109375 Z M 11.6875 -2.109375 "/></g></g></g><g fill="#ffffff" fill-opacity="1"><g transform="translate(143.241593, 57.571872)"><g><path d="M 18.703125 -18.1875 L 10.515625 -10 L 19.65625 0 L 15.84375 0 L 6.890625 -9.9375 L 14.9375 -18.1875 Z M 6.5625 -25.875 L 6.5625 0 L 3.65625 0 L 3.65625 -25.515625 Z M 6.5625 -25.875 "/></g></g></g><g fill="#ffffff" fill-opacity="1"><g transform="translate(163.970733, 57.571872)"><g><path d="M 7.546875 -2.421875 C 7.546875 -3.171875 7.8125 -3.820312 8.34375 -4.375 C 8.882812 -4.925781 9.546875 -5.203125 10.328125 -5.203125 C 11.128906 -5.203125 11.796875 -4.925781 12.328125 -4.375 C 12.867188 -3.820312 13.140625 -3.171875 13.140625 -2.421875 C 13.140625 -1.640625 12.867188 -0.972656 12.328125 -0.421875 C 11.796875 0.117188 11.128906 0.390625 10.328125 0.390625 C 9.546875 0.390625 8.882812 0.117188 8.34375 -0.421875 C 7.8125 -0.972656 7.546875 -1.640625 7.546875 -2.421875 Z M 7.546875 -14.875 C 7.546875 -15.644531 7.8125 -16.300781 8.34375 -16.84375 C 8.882812 -17.382812 9.546875 -17.65625 10.328125 -17.65625 C 11.128906 -17.65625 11.796875 -17.382812 12.328125 -16.84375 C 12.867188 -16.300781 13.140625 -15.644531 13.140625 -14.875 C 13.140625 -14.113281 12.867188 -13.453125 12.328125 -12.890625 C 11.796875 -12.335938 11.128906 -12.0625 10.328125 -12.0625 C 9.546875 -12.0625 8.882812 -12.335938 8.34375 -12.890625 C 7.8125 -13.453125 7.546875 -14.113281 7.546875 -14.875 Z M 7.546875 -14.875 "/></g></g></g><g fill="#ffffff" fill-opacity="1"><g transform="translate(184.699873, 57.571872)"><g><path d="M 15.484375 -6.6875 C 15.484375 -7.882812 15.25 -8.804688 14.78125 -9.453125 C 14.3125 -10.109375 13.691406 -10.5625 12.921875 -10.8125 C 12.148438 -11.0625 11.300781 -11.1875 10.375 -11.1875 L 6.328125 -11.1875 L 6.328125 -2.46875 L 10.25 -2.46875 C 10.832031 -2.46875 11.425781 -2.523438 12.03125 -2.640625 C 12.644531 -2.753906 13.210938 -2.960938 13.734375 -3.265625 C 14.265625 -3.566406 14.6875 -3.988281 15 -4.53125 C 15.320312 -5.082031 15.484375 -5.800781 15.484375 -6.6875 Z M 14.53125 -17.640625 C 14.53125 -18.984375 14.109375 -19.941406 13.265625 -20.515625 C 12.429688 -21.085938 11.296875 -21.375 9.859375 -21.375 L 6.328125 -21.375 L 6.328125 -13.65625 L 10.15625 -13.65625 C 11.5625 -13.65625 12.640625 -13.96875 13.390625 -14.59375 C 14.148438 -15.226562 14.53125 -16.242188 14.53125 -17.640625 Z M 18.640625 -6.78125 C 18.640625 -5.5 18.378906 -4.421875 17.859375 -3.546875 C 17.347656 -2.671875 16.664062 -1.972656 15.8125 -1.453125 C 14.957031 -0.929688 14 -0.554688 12.9375 -0.328125 C 11.882812 -0.109375 10.8125 0 9.71875 0 L 3.328125 0 L 3.328125 -23.78125 L 9.1875 -23.78125 C 10.238281 -23.78125 11.257812 -23.6875 12.25 -23.5 C 13.25 -23.3125 14.148438 -22.988281 14.953125 -22.53125 C 15.753906 -22.070312 16.394531 -21.457031 16.875 -20.6875 C 17.363281 -19.914062 17.609375 -18.953125 17.609375 -17.796875 C 17.609375 -16.765625 17.394531 -15.894531 16.96875 -15.1875 C 16.550781 -14.476562 16.003906 -13.910156 15.328125 -13.484375 C 14.648438 -13.054688 13.929688 -12.757812 13.171875 -12.59375 C 14.066406 -12.457031 14.929688 -12.1875 15.765625 -11.78125 C 16.597656 -11.382812 17.285156 -10.785156 17.828125 -9.984375 C 18.367188 -9.191406 18.640625 -8.125 18.640625 -6.78125 Z M 18.640625 -6.78125 "/></g></g></g><g fill="#ffffff" fill-opacity="1"><g transform="translate(205.429014, 57.571872)"><g><path d="M 18.21875 -23.78125 L 18.21875 -7.703125 C 18.21875 -6.097656 17.890625 -4.6875 17.234375 -3.46875 C 16.585938 -2.25 15.675781 -1.300781 14.5 -0.625 C 13.320312 0.0507812 11.929688 0.390625 10.328125 0.390625 C 8.691406 0.390625 7.289062 0.0507812 6.125 -0.625 C 4.957031 -1.3125 4.0625 -2.265625 3.4375 -3.484375 C 2.8125 -4.703125 2.5 -6.109375 2.5 -7.703125 L 2.5 -23.78125 L 5.46875 -23.78125 L 5.46875 -7.59375 C 5.46875 -5.789062 5.890625 -4.4375 6.734375 -3.53125 C 7.585938 -2.632812 8.785156 -2.1875 10.328125 -2.1875 C 11.878906 -2.1875 13.078125 -2.632812 13.921875 -3.53125 C 14.773438 -4.4375 15.203125 -5.789062 15.203125 -7.59375 L 15.203125 -23.78125 Z M 18.21875 -23.78125 "/></g></g></g><g fill="#ffffff" fill-opacity="1"><g transform="translate(226.158154, 57.571872)"><g><path d="M 18.53125 -6.578125 C 18.53125 -5.222656 18.191406 -4.015625 17.515625 -2.953125 C 16.835938 -1.898438 15.851562 -1.078125 14.5625 -0.484375 C 13.269531 0.0976562 11.695312 0.390625 9.84375 0.390625 C 8.101562 0.390625 6.523438 0.128906 5.109375 -0.390625 C 3.703125 -0.921875 2.5 -1.671875 1.5 -2.640625 L 3.28125 -4.640625 C 4.113281 -3.867188 5.0625 -3.253906 6.125 -2.796875 C 7.195312 -2.347656 8.453125 -2.125 9.890625 -2.125 C 10.859375 -2.125 11.765625 -2.28125 12.609375 -2.59375 C 13.453125 -2.914062 14.128906 -3.398438 14.640625 -4.046875 C 15.160156 -4.703125 15.421875 -5.53125 15.421875 -6.53125 C 15.421875 -7.300781 15.269531 -7.957031 14.96875 -8.5 C 14.675781 -9.039062 14.148438 -9.519531 13.390625 -9.9375 C 12.628906 -10.363281 11.566406 -10.773438 10.203125 -11.171875 C 8.640625 -11.628906 7.285156 -12.148438 6.140625 -12.734375 C 4.992188 -13.316406 4.109375 -14.035156 3.484375 -14.890625 C 2.859375 -15.742188 2.546875 -16.796875 2.546875 -18.046875 C 2.546875 -19.234375 2.875 -20.285156 3.53125 -21.203125 C 4.1875 -22.128906 5.09375 -22.851562 6.25 -23.375 C 7.40625 -23.90625 8.738281 -24.171875 10.25 -24.171875 C 11.894531 -24.171875 13.320312 -23.9375 14.53125 -23.46875 C 15.75 -23 16.851562 -22.328125 17.84375 -21.453125 L 16.078125 -19.5 C 15.222656 -20.257812 14.304688 -20.804688 13.328125 -21.140625 C 12.347656 -21.484375 11.351562 -21.65625 10.34375 -21.65625 C 9.476562 -21.65625 8.6875 -21.523438 7.96875 -21.265625 C 7.25 -21.015625 6.671875 -20.628906 6.234375 -20.109375 C 5.804688 -19.597656 5.59375 -18.945312 5.59375 -18.15625 C 5.59375 -17.476562 5.773438 -16.890625 6.140625 -16.390625 C 6.515625 -15.898438 7.140625 -15.445312 8.015625 -15.03125 C 8.890625 -14.625 10.082031 -14.195312 11.59375 -13.75 C 12.820312 -13.394531 13.960938 -12.945312 15.015625 -12.40625 C 16.066406 -11.875 16.914062 -11.148438 17.5625 -10.234375 C 18.207031 -9.316406 18.53125 -8.097656 18.53125 -6.578125 Z M 18.53125 -6.578125 "/></g></g></g><g fill="#ffffff" fill-opacity="1"><g transform="translate(246.887294, 57.571872)"><g><path d="M 12.375 -24.171875 C 13.925781 -24.171875 15.222656 -23.972656 16.265625 -23.578125 C 17.316406 -23.179688 18.316406 -22.601562 19.265625 -21.84375 L 17.578125 -19.90625 C 16.835938 -20.53125 16.046875 -20.976562 15.203125 -21.25 C 14.367188 -21.519531 13.5 -21.65625 12.59375 -21.65625 C 11.289062 -21.65625 10.085938 -21.347656 8.984375 -20.734375 C 7.878906 -20.117188 6.988281 -19.097656 6.3125 -17.671875 C 5.632812 -16.253906 5.296875 -14.332031 5.296875 -11.90625 C 5.296875 -9.539062 5.613281 -7.644531 6.25 -6.21875 C 6.894531 -4.789062 7.765625 -3.757812 8.859375 -3.125 C 9.953125 -2.488281 11.171875 -2.171875 12.515625 -2.171875 C 13.859375 -2.171875 14.957031 -2.375 15.8125 -2.78125 C 16.664062 -3.1875 17.410156 -3.644531 18.046875 -4.15625 L 19.609375 -2.1875 C 18.878906 -1.488281 17.929688 -0.882812 16.765625 -0.375 C 15.609375 0.132812 14.179688 0.390625 12.484375 0.390625 C 10.566406 0.390625 8.828125 -0.078125 7.265625 -1.015625 C 5.703125 -1.960938 4.460938 -3.347656 3.546875 -5.171875 C 2.640625 -6.992188 2.1875 -9.238281 2.1875 -11.90625 C 2.1875 -14.570312 2.648438 -16.816406 3.578125 -18.640625 C 4.503906 -20.460938 5.742188 -21.835938 7.296875 -22.765625 C 8.847656 -23.703125 10.539062 -24.171875 12.375 -24.171875 Z M 12.375 -24.171875 "/></g></g></g><g fill="#ffffff" fill-opacity="1"><g transform="translate(267.616434, 57.571872)"><g><path d="M 7.34375 -21.328125 L 7.34375 -13.3125 L 16.15625 -13.3125 L 16.15625 -10.84375 L 7.34375 -10.84375 L 7.34375 -2.40625 L 18.15625 -2.40625 L 18.15625 0 L 4.328125 0 L 4.328125 -23.78125 L 17.84375 -23.78125 L 17.5 -21.328125 Z M 7.34375 -21.328125 "/></g></g></g><g fill="#ffffff" fill-opacity="1"><g transform="translate(288.345575, 57.571872)"><g><path d="M 18.328125 -23.78125 L 19.671875 0 L 16.796875 0 L 16.046875 -12.421875 C 16.015625 -13.265625 15.976562 -14.113281 15.9375 -14.96875 C 15.90625 -15.832031 15.882812 -16.660156 15.875 -17.453125 C 15.863281 -18.253906 15.859375 -18.960938 15.859375 -19.578125 C 15.859375 -20.203125 15.859375 -20.6875 15.859375 -21.03125 L 11.84375 -4.265625 L 8.84375 -4.265625 L 4.546875 -21.03125 C 4.554688 -20.695312 4.566406 -20.207031 4.578125 -19.5625 C 4.585938 -18.914062 4.59375 -18.179688 4.59375 -17.359375 C 4.601562 -16.546875 4.597656 -15.707031 4.578125 -14.84375 C 4.566406 -13.988281 4.546875 -13.191406 4.515625 -12.453125 L 3.875 0 L 1.046875 0 L 2.40625 -23.78125 L 6.578125 -23.78125 L 10.4375 -7.5 L 14.109375 -23.78125 Z M 18.328125 -23.78125 "/></g></g></g><g fill="#ffffff" fill-opacity="1"><g transform="translate(309.074726, 57.571872)"><g><path d="M 17.171875 -23.78125 L 17.171875 -21.390625 L 11.890625 -21.390625 L 11.890625 -2.40625 L 17.171875 -2.40625 L 17.171875 0 L 3.5625 0 L 3.5625 -2.40625 L 8.84375 -2.40625 L 8.84375 -21.390625 L 3.5625 -21.390625 L 3.5625 -23.78125 Z M 17.171875 -23.78125 "/></g></g></g><g clip-path="url(#93defd3130)"><path fill="#ffffff" d="M 71.09375 88.421875 C 66.886719 87.921875 62.027344 89.574219 58.164062 87.246094 C 54.410156 84.984375 54.792969 79.640625 54.964844 75.871094 C 55.355469 67.351562 57.402344 57.152344 51.53125 49.902344 C 50.140625 48.183594 48.375 46.785156 46.398438 45.910156 C 47.671875 45.238281 48.847656 44.355469 49.867188 43.34375 C 52.867188 40.367188 54.507812 36.351562 55.152344 32.222656 C 55.882812 27.5625 55.421875 22.871094 55.074219 18.199219 C 54.898438 15.796875 54.753906 13.378906 54.859375 10.96875 C 54.941406 9.226562 55.144531 7.140625 56.363281 5.78125 C 57.773438 4.199219 60.179688 3.800781 62.195312 3.753906 C 64.902344 3.691406 67.574219 4.117188 70.277344 3.792969 C 71.34375 3.667969 72.25 1.035156 70.765625 1.210938 C 66.523438 1.714844 62.164062 0.304688 58.109375 2.167969 C 54.210938 3.953125 52.964844 8.15625 52.785156 12.121094 C 52.570312 16.960938 53.339844 21.773438 53.464844 26.601562 C 53.574219 30.863281 53.195312 35.40625 50.976562 39.152344 C 48.835938 42.761719 44.707031 45.210938 40.464844 44.617188 C 39.546875 44.488281 38.582031 46.28125 39.03125 46.980469 C 39.054688 47.386719 39.277344 47.671875 39.800781 47.597656 C 43.632812 47.066406 47.386719 49.15625 49.746094 52.070312 C 52.480469 55.445312 53.386719 59.890625 53.53125 64.136719 C 53.699219 68.878906 52.960938 73.589844 52.84375 78.324219 C 52.75 82.15625 52.8125 86.933594 56.25 89.421875 C 60.265625 92.328125 65.578125 90.511719 70.101562 91.050781 C 71.210938 91.1875 72.371094 88.578125 71.09375 88.421875 Z M 71.09375 88.421875 " fill-opacity="1" fill-rule="nonzero"/></g></svg>